<?xml version="1.0" encoding="UTF-8"?>
<svg width="430px" height="258px" viewBox="0 0 430 258" version="1.1" xmlns="http://www.w3.org/2000/svg" xmlns:xlink="http://www.w3.org/1999/xlink">
    <title>Group 509</title>
    <defs>
        <path d="M124.467131,429.664062 C124.457424,429.664062 124.447718,429.664062 124.438012,429.664062 C124.428305,429.664062 124.415364,429.664062 124.405657,429.664062 C110.007978,429.664062 95.6458881,425.185205 86.8908048,416.396138 C83.2768255,412.763755 81.9470622,408.223278 81.9405914,402.969296 C81.9341205,395.805071 84.4965839,387.421403 87.0914017,378.995573 C89.5794501,370.89082 92.1030883,362.747149 92.3036852,355.430493 C92.3101561,355.135362 92.3133915,354.836988 92.3133915,354.5451 C92.3133915,354.522398 92.3133915,354.499695 92.3133915,354.480236 C92.3133915,354.415372 92.3133915,354.350508 92.3133915,354.285644 C92.2745663,348.872746 90.8089149,343.897679 86.8908048,339.976652 C79.7469674,332.851345 67.5946788,330.603809 54.6011774,330.590836 C31.4775335,330.594079 5.48082452,337.855601 0,339.464227 C0,256.486995 0,173.513005 0,90.5422593 C5.48082452,92.1508857 31.4775335,99.4091639 54.6011774,99.4156503 C67.5946788,99.4026775 79.7469674,97.155141 86.8908048,90.029834 C90.8703881,86.0471863 92.3230978,80.9715807 92.3133915,75.4581433 C92.3101561,67.9177069 89.682984,59.4399861 87.0914017,51.004427 C84.4965839,42.5785974 81.9341205,34.1949294 81.9405914,27.0274608 C81.9470622,21.7767225 83.2768255,17.2362446 86.8908048,13.6038624 C95.6426527,4.81803776 110.011213,0.3359375 124.405657,0.3359375 C124.415364,0.3359375 124.42507,0.3359375 124.438012,0.3359375 C124.447718,0.3359375 124.457424,0.3359375 124.467131,0.3359375 C138.86481,0.3359375 153.2269,4.81479457 161.981983,13.6038624 C165.595963,17.2362446 166.925726,21.7767225 166.932197,27.0274608 C166.938667,34.1949294 164.37944,42.5785974 161.781386,51.004427 C159.189804,59.4399861 156.562632,67.9177069 156.556161,75.4581433 C156.54969,80.9715807 158.0024,86.0471863 161.981983,90.029834 C169.125821,97.155141 181.278109,99.4026775 194.271611,99.4156503 C217.796448,99.4091639 244.294649,91.8946731 249.138094,90.4644225 C249.380751,91.2849518 249.798122,92.7379047 250.325498,94.7065261 C252.884726,104.225314 258.003182,125.730963 258,144.998805 C258.012888,157.8516 255.693082,169.650356 249.108975,176.21459 C245.488524,179.837242 240.958917,181.170197 235.717515,181.176683 C235.711044,181.176683 235.701338,181.176683 235.691632,181.176683 C228.55103,181.176683 220.19714,178.614557 211.797954,176.013511 C203.385827,173.418953 194.928404,170.785475 187.40602,170.778989 C187.389843,170.778989 187.376902,170.778989 187.360724,170.778989 C181.8799,170.778989 176.835859,172.235185 172.872453,176.21459 C163.680586,185.447976 159.167156,200.236961 159.160685,215 C159.167156,229.763039 163.680586,244.552024 172.872453,253.78541 C176.835859,257.764815 181.8799,259.221011 187.36396,259.221011 C187.380137,259.221011 187.393079,259.221011 187.40602,259.221011 C194.928404,259.214525 203.385827,256.581047 211.797954,253.986489 C220.19714,251.385443 228.55103,248.820073 235.691632,248.820073 C235.701338,248.820073 235.707809,248.820073 235.717515,248.820073 C240.958917,248.829803 245.488524,250.159514 249.108975,253.78541 C255.693082,260.349644 258.012888,272.1484 258,285.001195 C258,297.847505 255.728672,311.692719 253.454162,322.31095 C252.318525,327.620066 251.179652,332.124869 250.325498,335.29996 C249.798122,337.268582 249.380751,338.721535 249.138094,339.542064 C244.294649,338.111813 217.796448,330.594079 194.271611,330.590836 C182.598166,330.600566 171.600927,332.416757 164.30826,337.952897 C163.483224,338.578834 162.70672,339.253419 161.981983,339.976652 C158.125346,343.832815 156.643518,348.713829 156.562632,354.029431 C156.559397,354.178618 156.559397,354.327806 156.556161,354.480236 C156.556161,354.499695 156.556161,354.522398 156.556161,354.5451 C156.562632,362.085536 159.189804,370.563257 161.781386,378.995573 C164.37944,387.421403 166.938667,395.805071 166.932197,402.972539 C166.925726,408.223278 165.595963,412.763755 161.981983,416.396138 C153.2269,425.181962 138.861575,429.664062 124.467131,429.664062" id="path-1"></path>
    </defs>
    <g id="Hero" stroke="none" stroke-width="1" fill="none" fill-rule="evenodd">
        <g id="puzzle-piece-3" transform="translate(-35.000000, -23.000000)">
            <g id="Group-509" transform="translate(250.000000, 152.000000) rotate(90.000000) translate(-250.000000, -152.000000) translate(121.000000, -63.000000)">
                <mask id="mask-2" fill="white">
                    <use xlink:href="#path-1"></use>
                </mask>
                <g id="Clip-508"></g>
                <path d="M123.502269,428 C123.492638,428 123.483007,428 123.473376,428 C123.463745,428 123.450904,428 123.441272,428 C109.155203,428 94.9044471,423.555863 86.2172327,414.834927 C82.6312687,411.230703 81.3118137,406.725423 81.305393,401.51217 C81.2989723,394.403481 83.8415716,386.084803 86.4162745,377.72429 C88.8850358,369.682364 91.3891109,361.601822 91.5881528,354.341885 C91.5945735,354.049041 91.5977838,353.75298 91.5977838,353.463355 C91.5977838,353.440829 91.5977838,353.418302 91.5977838,353.398994 C91.5977838,353.334633 91.5977838,353.270271 91.5977838,353.20591 C91.5592596,347.834973 90.1049698,342.898473 86.2172327,339.007841 C79.1287738,331.937769 67.070689,329.707655 54.1779125,329.694783 C31.2335216,329.698001 5.43833751,336.903232 0,338.499388 C0,256.16539 0,173.83461 0,91.507048 C5.43833751,93.1032045 31.2335216,100.305217 54.1779125,100.311653 C67.070689,100.298781 79.1287738,98.068667 86.2172327,90.9985949 C90.1659665,87.0468205 91.6074149,82.0105607 91.5977838,76.5398631 C91.5945735,69.0578797 88.987767,60.6458777 86.4162745,52.2757105 C83.8415716,43.9151974 81.2989723,35.5965191 81.305393,28.4846122 C81.3118137,23.2745773 82.6312687,18.769297 86.2172327,15.1650727 C94.9012368,6.4473553 109.158413,2 123.441272,2 C123.450904,2 123.460535,2 123.473376,2 C123.483007,2 123.492638,2 123.502269,2 C137.788339,2 152.039094,6.44413724 160.726309,15.1650727 C164.312273,18.769297 165.631728,23.2745773 165.638149,28.4846122 C165.644569,35.5965191 163.10518,43.9151974 160.527267,52.2757105 C157.955775,60.6458777 155.348968,69.0578797 155.342547,76.5398631 C155.336127,82.0105607 156.777575,87.0468205 160.726309,90.9985949 C167.814768,98.068667 179.872853,100.298781 192.765629,100.311653 C216.108104,100.305217 242.400892,92.8489779 247.206791,91.4298146 C247.447567,92.2439831 247.861702,93.6856728 248.38499,95.6390337 C250.924379,105.084032 256.003157,126.422971 256,145.541449 C256.012788,158.294611 253.710965,170.001904 247.177897,176.515252 C243.585513,180.109822 239.091019,181.432443 233.890247,181.43888 C233.883827,181.43888 233.874196,181.43888 233.864565,181.43888 C226.779316,181.43888 218.490185,178.896614 210.15611,176.315732 C201.809193,173.741286 193.417331,171.128224 185.953261,171.121788 C185.937209,171.121788 185.924367,171.121788 185.908316,171.121788 C180.469978,171.121788 175.465038,172.566695 171.532356,176.515252 C162.411744,185.677061 157.933302,200.351403 157.926881,215 C157.933302,229.648597 162.411744,244.322939 171.532356,253.484748 C175.465038,257.433305 180.469978,258.878212 185.911526,258.878212 C185.927578,258.878212 185.940419,258.878212 185.953261,258.878212 C193.417331,258.871776 201.809193,256.258714 210.15611,253.684268 C218.490185,251.103386 226.779316,248.557902 233.864565,248.557902 C233.874196,248.557902 233.880616,248.557902 233.890247,248.557902 C239.091019,248.567557 243.585513,249.88696 247.177897,253.484748 C253.710965,259.998096 256.012788,271.705389 256,284.458551 C256,297.205276 253.746279,310.943163 251.489401,321.479083 C250.362567,326.747043 249.232523,331.216924 248.38499,334.367402 C247.861702,336.320763 247.447567,337.762453 247.206791,338.576621 C242.400892,337.157458 216.108104,329.698001 192.765629,329.694783 C181.182676,329.704437 170.270688,331.506549 163.034553,336.999773 C162.215913,337.620858 161.445428,338.290214 160.726309,339.007841 C156.899568,342.834111 155.429227,347.677288 155.348968,352.951684 C155.345758,353.099714 155.345758,353.247745 155.342547,353.398994 C155.342547,353.418302 155.342547,353.440829 155.342547,353.463355 C155.348968,360.945338 157.955775,369.35734 160.527267,377.72429 C163.10518,386.084803 165.644569,394.403481 165.638149,401.515388 C165.631728,406.725423 164.312273,411.230703 160.726309,414.834927 C152.039094,423.552645 137.785128,428 123.502269,428" id="Fill-507" fill="#000000" mask="url(#mask-2)"></path>
            </g>
        </g>
    </g>
</svg>