<?xml version="1.0" encoding="UTF-8"?>
<svg width="426px" height="266px" viewBox="0 0 426 266" version="1.1" xmlns="http://www.w3.org/2000/svg" xmlns:xlink="http://www.w3.org/1999/xlink">
    <title>Group 493</title>
    <g id="Hero" stroke="none" stroke-width="1" fill="none" fill-rule="evenodd">
        <g id="puzzle-piece-1" transform="translate(-36.000000, -19.000000)" fill="#000000">
            <g id="Group-493" transform="translate(36.000000, 19.000000)">
                <path d="M282.352352,266 C269.637808,266 257.975568,263.683539 251.481529,257.149764 C251.072836,256.740598 250.696323,256.321766 250.345555,255.890048 C247.60377,252.51362 246.564337,248.441287 246.557901,243.814808 C246.551465,236.697891 249.096948,228.369584 251.681048,219.996173 C252.958617,215.836852 254.249058,211.667866 255.220911,207.605198 C256.208855,203.484539 256.871775,199.476642 256.874993,195.703935 C256.881429,191.10323 255.864523,186.811816 253.193535,183.213086 C252.685082,182.526846 252.115486,181.863159 251.481529,181.23169 C251.195122,180.944951 250.902279,180.664656 250.606217,180.387583 C246.120245,176.199266 240.443592,173.051585 234.158727,170.921987 C227.548837,168.68607 220.272809,167.574555 212.996782,167.571333 C198.351403,167.577777 183.677062,172.075385 174.515253,181.23169 C170.557043,185.188038 169.112135,190.226906 169.121789,195.703935 C169.128225,203.1978 171.741288,211.619539 174.315733,219.996173 C176.899833,228.369584 179.445317,236.697891 179.438881,243.814808 C179.438881,243.821252 179.438881,243.827695 179.438881,243.834139 C179.429227,249.043761 178.106605,253.547812 174.515253,257.149764 C168.613336,263.090731 158.437839,265.542507 147.084533,265.942008 C147.02339,265.94523 146.959029,265.94523 146.897886,265.948451 C146.888231,265.948451 146.881795,265.948451 146.872141,265.948451 C145.954995,265.977448 145.024976,265.996778 144.09174,266 C143.953363,266 143.811769,266 143.673392,266 C143.663738,266 143.654084,266 143.647648,266 C143.609031,266 143.57685,266 143.541452,266 C131.341797,266 118.237867,263.931616 107.898249,261.766578 C107.434849,261.669925 106.974667,261.573271 106.520921,261.476618 C101.252961,260.342551 96.7862976,259.211705 93.6358195,258.361155 C91.6824588,257.836004 90.2407691,257.420394 89.4266006,257.17876 C90.8457639,252.355753 98.3020026,225.966135 98.3084387,202.537335 C98.2955665,189.598658 96.0654528,177.497644 88.9953809,170.387171 C85.0532608,166.434044 80.0330914,164.984242 74.5752663,164.984242 C74.5623941,164.984242 74.5495218,164.984242 74.5366496,164.984242 C67.0514484,164.990686 58.6426647,167.606773 50.2724977,170.187421 C47.5210588,171.037971 44.7728379,171.8853 42.0696697,172.639197 C36.576446,174.172765 31.2730876,175.316498 26.5103628,175.316498 C26.5007086,175.316498 26.4942725,175.316498 26.4846184,175.316498 C21.2713656,175.310054 16.7693034,173.985902 13.1682974,170.387171 C4.43770796,161.665807 -0.00642913389,147.344985 0,132.998389 C-0.00642913389,118.651793 4.43770796,104.330972 13.1682974,95.6096072 C16.7693034,92.0108765 21.2713656,90.6867241 26.4846184,90.6802805 C26.4910545,90.6802805 26.5007086,90.6802805 26.5071448,90.6802805 C33.6126152,90.6802805 41.9216391,93.2254884 50.2724977,95.8093577 C51.2379149,96.1057617 52.2033321,96.4053874 53.1655312,96.6985696 C60.5638449,98.9538171 67.9042336,101.002871 74.5205593,101.009314 C74.5237774,101.009314 74.5302135,101.009314 74.5366496,101.009314 C74.5398677,101.009314 74.5398677,101.009314 74.5430857,101.009314 C74.5559579,101.009314 74.5688302,101.009314 74.5817024,101.009314 C80.0363095,101.009314 85.0532608,99.5627339 88.9953809,95.6096072 C96.0654528,88.499134 98.2955665,76.3981202 98.3084387,63.4594431 C98.3020026,40.033865 90.8457639,13.6474692 89.4266006,8.82446132 C90.2407691,8.58282766 91.6824588,8.16721776 93.6358195,7.64206727 C103.0776,5.09363759 124.406883,0 143.522143,0 C143.52858,0 143.531798,0 143.538234,0 C143.541452,0 143.541452,0 143.541452,0 C143.573632,0 143.612249,0 143.647648,0 C156.358974,0 168.021213,2.31646137 174.515253,8.85345736 C178.109823,12.4586316 179.432445,16.9659048 179.438881,22.1851919 C179.445317,29.2988869 176.899833,37.6271938 174.315733,45.9973838 C171.741288,54.3772392 169.125007,62.7989778 169.121789,70.2896213 C169.115353,75.1867301 170.267417,79.7326648 173.337444,83.4667103 C173.34388,83.4763756 173.353534,83.486041 173.35997,83.4957063 C173.421114,83.5698073 173.482257,83.6439083 173.546618,83.7180093 C173.565926,83.73734 173.582016,83.7598924 173.601325,83.7824449 C173.620633,83.8049974 173.639941,83.8275499 173.662468,83.8501023 C173.672122,83.8629895 173.684994,83.8758766 173.694648,83.8887637 C173.913476,84.136841 174.141958,84.3849182 174.376877,84.6265518 C174.425147,84.6716568 174.4702,84.7199835 174.515253,84.7650885 C180.587727,90.8349261 189.08018,94.8557102 198.383584,96.8789894 C203.117346,97.9099597 208.060282,98.422223 213,98.4254448 C227.648597,98.4190012 242.322938,93.9213934 251.481529,84.7650885 C255.426867,80.8248489 256.871775,75.8085341 256.874993,70.3572787 C256.874993,70.3347262 256.874993,70.3121737 256.874993,70.292843 C256.868557,62.7989778 254.255494,54.3772392 251.681048,46.0006056 C249.096948,37.6304156 246.551465,29.3021087 246.557901,22.1851919 C246.564337,16.9659048 247.886959,12.4586316 251.481529,8.85345736 C251.507273,8.8276831 251.533018,8.79868706 251.558762,8.77291281 C251.623123,8.70847716 251.687485,8.6472633 251.755064,8.58282766 C251.787244,8.55383162 251.819425,8.5216138 251.851605,8.48939598 C251.858042,8.48617419 251.86126,8.47973063 251.867696,8.47328707 C251.909531,8.43462568 251.954583,8.39274251 251.999636,8.35085934 C252.00929,8.341194 252.015726,8.33475043 252.025381,8.32508509 C254.754293,5.78632075 258.297374,3.92413066 262.390743,2.61286533 C262.406833,2.60642176 262.422924,2.60319998 262.439014,2.59675642 C262.46154,2.59031285 262.487285,2.58386929 262.509811,2.57420394 C262.54521,2.56453859 262.580608,2.55165147 262.616007,2.54198612 C262.619225,2.53876434 262.625661,2.53876434 262.628879,2.53876434 C262.66106,2.52587721 262.69324,2.51621186 262.725421,2.50654652 C262.735075,2.50332473 262.741511,2.50332473 262.747947,2.50010295 C268.476089,0.721679203 275.2501,0 282.352352,0 C282.387751,0 282.42315,0 282.458548,0 C295.202055,0 308.939942,2.26169107 319.472643,4.52660393 C324.740603,5.66067124 329.210484,6.79151678 332.360962,7.64206727 C334.314323,8.16721776 335.756013,8.58282766 336.570181,8.82446132 C335.151018,13.6474692 327.694779,40.033865 327.688343,63.4594431 C327.701215,76.3981202 329.931329,88.499134 337.001401,95.6096072 C340.943521,99.5627339 345.963691,101.009314 351.41508,101.009314 C351.43117,101.009314 351.444042,101.009314 351.460132,101.009314 C358.945334,101.006092 367.354117,98.3900052 375.724284,95.8093577 C384.075143,93.2254884 392.384167,90.6802805 399.486419,90.6802805 C399.496073,90.6802805 399.505727,90.6802805 399.512164,90.6802805 C404.725416,90.6867241 409.227479,92.0108765 412.831703,95.6096072 C421.559074,104.330972 426.006429,118.651793 426,132.998389 C426.006429,147.344985 421.559074,161.665807 412.831703,170.387171 C409.227479,173.985902 404.725416,175.310054 399.512164,175.316498 C399.505727,175.316498 399.496073,175.316498 399.489637,175.316498 C392.384167,175.316498 384.075143,172.77129 375.724284,170.187421 C367.354117,167.606773 358.945334,164.990686 351.460132,164.984242 C351.44726,164.984242 351.434388,164.984242 351.421516,164.984242 C345.963691,164.984242 340.943521,166.434044 337.001401,170.387171 C329.931329,177.497644 327.701215,189.598658 327.688343,202.537335 C327.694779,225.966135 335.151018,252.355753 336.570181,257.17876 C335.756013,257.420394 334.314323,257.836004 332.360962,258.361155 C322.919182,260.909584 301.589899,266 282.474639,266 C282.468202,266 282.464984,266 282.458548,266 C282.42315,266 282.384533,266 282.352352,266" id="puzzle-piece"></path>
            </g>
        </g>
    </g>
</svg>