<?xml version="1.0" encoding="UTF-8"?>
<svg width="338px" height="269px" viewBox="0 0 338 269" version="1.1" xmlns="http://www.w3.org/2000/svg" xmlns:xlink="http://www.w3.org/1999/xlink">
    <title>Group 513</title>
    <defs>
        <path d="M193.829426,268.794118 C181.06831,268.794118 169.363354,266.460211 162.845528,259.873985 C159.237792,256.24166 157.910326,251.697197 157.900636,246.441849 C157.897406,239.271335 160.452213,230.880308 163.045778,222.443836 C165.629654,214.004118 168.252288,205.518956 168.258747,197.968654 C168.265207,192.450377 166.818237,187.373562 162.845528,183.390664 C153.650161,174.16865 138.92207,169.640416 124.223048,169.633924 C109.520796,169.640416 94.7927051,174.16865 85.6005677,183.390664 C81.6246292,187.373562 80.1776589,192.450377 80.1841186,197.968654 C80.1905783,205.518956 82.813212,214.000872 85.3970875,222.443836 C87.9906526,230.877062 90.5454596,239.268089 90.5389999,246.441849 C90.5325402,251.697197 89.2050742,256.24166 85.6005677,259.873985 C79.0795118,266.460211 67.3745555,268.794118 54.61344,268.794118 C54.5779117,268.794118 54.5423834,268.794118 54.5068551,268.794118 C41.7166711,268.794118 27.9284651,266.515394 17.3571841,264.233424 C12.0699288,263.090816 7.58367479,261.951454 4.42165707,261.094498 C2.29318957,260.519948 0.768702982,260.07524 0,259.844771 C0,176.473342 0,93.111651 0,9.74346815 C0.768702982,9.51299893 2.29318957,9.06829072 4.42165707,8.49049465 C13.8980207,5.92611882 35.3054298,0.794117647 54.4907059,0.794117647 C54.4971656,0.794117647 54.5003954,0.794117647 54.5068551,0.794117647 C54.5423834,0.794117647 54.5779117,0.794117647 54.61344,0.794117647 C67.3745555,0.794117647 79.0795118,3.12802772 85.5973379,9.71425374 C89.2050742,13.3465785 90.5325402,17.8877959 90.5389999,23.1463894 C90.5454596,30.3136576 87.9906526,38.7046848 85.3970875,47.1411567 C82.813212,55.5808746 80.1905783,64.0660372 80.1841186,71.6130926 C80.1776589,77.1346158 81.6246292,82.2114307 85.5973379,86.1975744 C94.7927051,95.4195892 109.520796,99.9478225 124.223048,99.9543146 C138.92207,99.9478225 153.650161,95.4195892 162.845528,86.1975744 C166.818237,82.2114307 168.265207,77.1346158 168.258747,71.6163386 C168.252288,64.0660372 165.629654,55.5808746 163.045778,47.1411567 C160.452213,38.7046848 157.897406,30.3136576 157.900636,23.1463894 C157.910326,17.8877959 159.237792,13.3465785 162.845528,9.71425374 C169.363354,3.12478168 181.07154,0.794117647 193.832656,0.794117647 C193.868184,0.794117647 193.900482,0.794117647 193.936011,0.794117647 C206.726195,0.790875066 220.514401,3.0695989 231.085682,5.35481483 C236.376167,6.49417675 240.859191,7.63678472 244.021209,8.49049465 C245.981724,9.02284608 247.428695,9.44158593 248.245845,9.68503934 C246.821484,14.5443692 239.337934,41.1262346 239.331475,64.7282304 C239.344394,77.7643486 241.582676,89.9564949 248.678644,97.120517 C252.635204,101.106661 257.670531,102.564135 263.145118,102.564135 C263.158037,102.564135 263.174186,102.564135 263.187106,102.564135 C270.699724,102.557643 279.142537,99.9218541 287.540133,97.3217718 C295.921579,94.7184434 304.264268,92.1540676 311.392534,92.1540676 C311.402224,92.1540676 311.408684,92.1540676 311.418373,92.1540676 C316.650721,92.1605597 321.169274,93.4946843 324.786699,97.120517 C333.546037,105.910808 338.006453,120.339479 338,134.794118 C338.006453,149.245513 333.546037,163.670939 324.786699,172.457984 C321.169274,176.087062 316.647491,177.417941 311.415143,177.427679 C311.408684,177.427679 311.398994,177.427679 311.392534,177.427679 C304.261038,177.427679 295.921579,174.860057 287.536903,172.259975 C279.139308,169.659893 270.696494,167.024104 263.187106,167.017612 C263.170957,167.017612 263.158037,167.017612 263.145118,167.017612 C257.670531,167.017612 252.635204,168.475086 248.678644,172.457984 C241.582676,179.625252 239.344394,191.817398 239.331475,204.853516 C239.337934,228.458758 246.821484,255.04387 248.245845,259.903199 C247.428695,260.146653 245.981724,260.565393 244.021209,261.094498 C234.544845,263.66212 213.137436,268.794118 193.95216,268.794118 C193.9457,268.794118 193.94247,268.794118 193.936011,268.794118 C193.900482,268.794118 193.861724,268.794118 193.829426,268.794118" id="path-1"></path>
    </defs>
    <g id="Hero" stroke="none" stroke-width="1" fill="none" fill-rule="evenodd">
        <g id="puzzle-piece-2" transform="translate(-81.000000, -17.000000)">
            <g id="Group-513" transform="translate(81.000000, 17.000000)">
                <mask id="mask-2" fill="white">
                    <use xlink:href="#path-1"></use>
                </mask>
                <g id="Clip-512"></g>
                <path d="M193.829426,268.794118 C181.06831,268.794118 169.363354,266.460211 162.845528,259.873985 C159.237792,256.24166 157.910326,251.697197 157.900636,246.441849 C157.897406,239.271335 160.452213,230.880308 163.045778,222.443836 C165.629654,214.004118 168.252288,205.518956 168.258747,197.968654 C168.265207,192.450377 166.818237,187.373562 162.845528,183.390664 C153.650161,174.16865 138.92207,169.640416 124.223048,169.633924 C109.520796,169.640416 94.7927051,174.16865 85.6005677,183.390664 C81.6246292,187.373562 80.1776589,192.450377 80.1841186,197.968654 C80.1905783,205.518956 82.813212,214.000872 85.3970875,222.443836 C87.9906526,230.877062 90.5454596,239.268089 90.5389999,246.441849 C90.5325402,251.697197 89.2050742,256.24166 85.6005677,259.873985 C79.0795118,266.460211 67.3745555,268.794118 54.61344,268.794118 C54.5779117,268.794118 54.5423834,268.794118 54.5068551,268.794118 C41.7166711,268.794118 27.9284651,266.515394 17.3571841,264.233424 C12.0699288,263.090816 7.58367479,261.951454 4.42165707,261.094498 C2.29318957,260.519948 0.768702982,260.07524 0,259.844771 C0,176.473342 0,93.111651 0,9.74346815 C0.768702982,9.51299893 2.29318957,9.06829072 4.42165707,8.49049465 C13.8980207,5.92611882 35.3054298,0.794117647 54.4907059,0.794117647 C54.4971656,0.794117647 54.5003954,0.794117647 54.5068551,0.794117647 C54.5423834,0.794117647 54.5779117,0.794117647 54.61344,0.794117647 C67.3745555,0.794117647 79.0795118,3.12802772 85.5973379,9.71425374 C89.2050742,13.3465785 90.5325402,17.8877959 90.5389999,23.1463894 C90.5454596,30.3136576 87.9906526,38.7046848 85.3970875,47.1411567 C82.813212,55.5808746 80.1905783,64.0660372 80.1841186,71.6130926 C80.1776589,77.1346158 81.6246292,82.2114307 85.5973379,86.1975744 C94.7927051,95.4195892 109.520796,99.9478225 124.223048,99.9543146 C138.92207,99.9478225 153.650161,95.4195892 162.845528,86.1975744 C166.818237,82.2114307 168.265207,77.1346158 168.258747,71.6163386 C168.252288,64.0660372 165.629654,55.5808746 163.045778,47.1411567 C160.452213,38.7046848 157.897406,30.3136576 157.900636,23.1463894 C157.910326,17.8877959 159.237792,13.3465785 162.845528,9.71425374 C169.363354,3.12478168 181.07154,0.794117647 193.832656,0.794117647 C193.868184,0.794117647 193.900482,0.794117647 193.936011,0.794117647 C206.726195,0.790875066 220.514401,3.0695989 231.085682,5.35481483 C236.376167,6.49417675 240.859191,7.63678472 244.021209,8.49049465 C245.981724,9.02284608 247.428695,9.44158593 248.245845,9.68503934 C246.821484,14.5443692 239.337934,41.1262346 239.331475,64.7282304 C239.344394,77.7643486 241.582676,89.9564949 248.678644,97.120517 C252.635204,101.106661 257.670531,102.564135 263.145118,102.564135 C263.158037,102.564135 263.174186,102.564135 263.187106,102.564135 C270.699724,102.557643 279.142537,99.9218541 287.540133,97.3217718 C295.921579,94.7184434 304.264268,92.1540676 311.392534,92.1540676 C311.402224,92.1540676 311.408684,92.1540676 311.418373,92.1540676 C316.650721,92.1605597 321.169274,93.4946843 324.786699,97.120517 C333.546037,105.910808 338.006453,120.339479 338,134.794118 C338.006453,149.245513 333.546037,163.670939 324.786699,172.457984 C321.169274,176.087062 316.647491,177.417941 311.415143,177.427679 C311.408684,177.427679 311.398994,177.427679 311.392534,177.427679 C304.261038,177.427679 295.921579,174.860057 287.536903,172.259975 C279.139308,169.659893 270.696494,167.024104 263.187106,167.017612 C263.170957,167.017612 263.158037,167.017612 263.145118,167.017612 C257.670531,167.017612 252.635204,168.475086 248.678644,172.457984 C241.582676,179.625252 239.344394,191.817398 239.331475,204.853516 C239.337934,228.458758 246.821484,255.04387 248.245845,259.903199 C247.428695,260.146653 245.981724,260.565393 244.021209,261.094498 C234.544845,263.66212 213.137436,268.794118 193.95216,268.794118 C193.9457,268.794118 193.94247,268.794118 193.936011,268.794118 C193.900482,268.794118 193.861724,268.794118 193.829426,268.794118" id="Fill-511" fill="#000000" mask="url(#mask-2)"></path>
            </g>
        </g>
    </g>
</svg>